<svg height="819" viewBox="0 0 606 819" width="606" xmlns="http://www.w3.org/2000/svg" xmlns:xlink="http://www.w3.org/1999/xlink"><radialGradient id="a" cx="14.84753%" cy="14.830371%" gradientTransform="matrix(.62869142 .57540783 -.77765487 .46518576 .170459 -.006119)" r="135.443981%"><stop offset="0" stop-color="#ffa400"/><stop offset="1" stop-color="#009ffd"/></radialGradient><mask id="b" fill="#fff"><path d="m0 0h606v819h-606z" fill="#fff" fill-rule="evenodd"/></mask><path d="m567.696223 819c-1.293354 0-2.576278-.062162-3.880062-.196845l-1.032597-.103603s-1.324645.031081-1.449808.031081c-2.033904 0-3.379409-.072522-4.714484-.227926-20.203442-2.31034-34.826686-19.891717-33.303866-40.01136l.041721-1.139629v-477.142198c.344199-59.478305-24.69889-116.760233-68.683357-157.092761-21.163026-19.166498-45.25696-34.447895-71.697706-45.4608616-26.326012-10.8575621-54.112263-16.3485048-82.659924-16.3485048-28.5268 0-56.375633 5.5116632-82.732936 16.3692253-26.138268 10.7228791-49.637676 26.1285991-69.820257 45.7716691-20.412047 19.99532-36.589402 43.337006-48.104425 69.424164-12.1929907 27.599757-18.2216893 56.898598-17.9192113 87.088423v481.09982c-1.4185174 20.979545-18.930948 37.597417-39.8853692 37.597417l-4.1408189.082882c-1.4289476 0-2.889186-.072522-4.3181336-.238286-10.0026331-1.14999-18.9622388-6.102198-25.23083366-13.944922-5.92439583-7.407593-8.782291-16.669673-8.0521718-26.066438l.0417211-1.149989v-477.23544c-.3650596-41.441077 7.79141494-81.752885 24.23995756-119.930477 15.5828299-35.919053 37.8514657-67.953005 66.1592303-95.1797926 28.2451825-26.9885012 60.9649535-48.1027298 97.2310175-62.7210696 36.422518-14.78410418 74.837219-22.2745788 114.201074-22.2745788h1.084749c39.708054 0 78.143615 7.58371705 114.367958 22.5335855 35.817562 14.7323028 68.120122 35.7429287 96.021106 62.4413424 28.422497 27.1749861 51.035332 59.0949751 67.233548 94.8482641 17.10565 38.136151 25.595893 78.665524 25.209973 120.417409v477.339043c.239897 4.092306.031291 7.252188-.552804 10.360269-3.379409 17.995788-19.212566 31.060087-37.653291 31.060087" fill="url(#a)" fill-rule="evenodd" mask="url(#b)" opacity=".2"/></svg>